<svg xmlns="http://www.w3.org/2000/svg" width="74" height="74" viewBox="0 0 74 74">
  <g id="perfil_sem_foto" data-name="perfil sem foto" transform="translate(10216 10151)">
    <circle id="olena-sergienko-XttWKETqCCQ-unsplash" cx="37" cy="37" r="37" transform="translate(-10216 -10151)" fill="#3d3d3d" opacity="0.98"/>
    <path id="ic_perfil" d="M22.113-2191.8a1.379,1.379,0,0,1-1.376-1.378c0-5.87-4.213-10.645-9.392-10.645s-9.392,4.775-9.392,10.645A1.379,1.379,0,0,1,.577-2191.8,1.38,1.38,0,0,1-.8-2193.177c0-7.387,5.448-13.4,12.145-13.4s12.145,6.01,12.145,13.4A1.38,1.38,0,0,1,22.113-2191.8Zm-10.768-16.476a6.778,6.778,0,0,1-6.76-6.762,6.769,6.769,0,0,1,6.76-6.762,6.769,6.769,0,0,1,6.76,6.762A6.769,6.769,0,0,1,11.345-2208.275Zm0-10.772a4.021,4.021,0,0,0-4.007,4.008,4.011,4.011,0,0,0,4.007,4.006,4.01,4.01,0,0,0,4.006-4.006A4.011,4.011,0,0,0,11.345-2219.047Z" transform="translate(-10190.346 -7907.201)" fill="#3dd465"/>
  </g>
</svg>
